<?xml version="1.0" standalone="no"?>
<!DOCTYPE svg PUBLIC "-//W3C//DTD SVG 20010904//EN"
 "http://www.w3.org/TR/2001/REC-SVG-20010904/DTD/svg10.dtd">
<svg version="1.0" xmlns="http://www.w3.org/2000/svg"
 width="1080.000000pt" height="1080.000000pt" viewBox="0 0 1080.000000 1080.000000"
 preserveAspectRatio="xMidYMid meet">

<g transform="translate(0.000000,1080.000000) scale(0.100000,-0.100000)"
fill="#000000" stroke="none">
<path d="M4833 7486 c-128 -40 -479 -338 -583 -494 -72 -108 -77 -144 -46
-335 14 -84 26 -167 26 -184 0 -16 18 -67 40 -112 22 -45 40 -84 40 -87 0 -2
19 -43 42 -90 44 -91 43 -103 -10 -104 -13 0 -21 -4 -18 -9 3 -5 14 -7 25 -4
28 7 48 -20 46 -64 -3 -59 -4 -63 -15 -63 -5 0 -9 3 -8 8 1 4 -22 31 -51 60
-63 62 -87 63 -77 4 3 -20 7 -43 8 -50 1 -6 4 -10 6 -7 3 3 16 -2 29 -10 22
-15 24 -14 33 7 8 21 16 10 10 -17 -1 -5 4 -5 11 2 9 9 16 4 31 -24 11 -19 17
-38 14 -40 -3 -3 0 -15 6 -27 7 -11 11 -24 10 -28 -1 -5 1 -8 5 -8 5 0 8 -15
9 -33 0 -17 4 -49 7 -69 7 -41 -5 -51 -23 -18 -6 11 -17 20 -25 20 -8 0 -15 5
-15 10 0 6 -4 10 -10 10 -13 0 -1 -31 23 -57 15 -17 17 -23 6 -23 -12 0 -11
-2 1 -10 12 -8 12 -10 1 -10 -8 0 -11 -3 -8 -6 4 -4 14 -1 23 7 14 11 18 11
21 1 3 -6 10 -9 16 -5 7 4 6 -1 -2 -10 -7 -9 -11 -24 -7 -32 3 -8 0 -15 -7
-15 -6 0 -2 -7 10 -15 13 -9 25 -32 29 -53 12 -68 65 -206 102 -267 37 -59 37
-61 37 -170 0 -102 -2 -114 -28 -160 -15 -27 -35 -66 -43 -85 -41 -90 -87
-177 -105 -196 -11 -12 -37 -24 -57 -28 -38 -6 -183 -95 -237 -146 -57 -53
-151 -108 -340 -200 -417 -203 -635 -330 -713 -414 -41 -45 -104 -162 -117
-216 -6 -30 38 -84 216 -261 277 -276 585 -482 963 -643 59 -26 115 -48 124
-50 10 -1 29 -8 44 -14 56 -23 304 -93 373 -106 127 -22 219 -37 270 -42 33
-4 63 -8 66 -10 3 -2 95 -6 205 -9 250 -8 467 10 691 59 11 2 42 8 67 11 26 4
49 11 52 16 3 5 9 7 14 4 4 -2 21 -1 36 4 16 5 83 26 149 46 152 47 287 101
418 166 169 85 367 204 367 220 0 5 4 8 8 6 14 -4 129 81 262 194 112 95 331
315 354 356 5 9 3 26 -4 42 -12 28 -96 172 -168 289 -56 91 -177 221 -255 274
-57 39 -294 157 -395 197 -26 10 -141 60 -257 111 -115 50 -257 109 -315 131
-58 22 -123 47 -144 57 -64 27 -126 98 -181 205 -48 95 -49 101 -53 198 -4 93
-3 102 21 137 14 20 36 49 50 63 35 36 81 121 108 199 12 36 29 71 37 78 9 6
12 12 6 12 -5 0 -2 5 6 10 11 7 12 10 2 10 -24 0 -9 45 16 48 12 2 21 9 20 15
-1 7 6 25 16 40 23 34 7 62 -16 29 -21 -31 -41 -13 -23 21 7 15 10 27 5 27 -5
0 -7 17 -5 38 2 20 3 43 4 50 1 7 5 11 10 8 4 -3 7 11 5 31 -3 42 28 95 55 92
9 -1 29 3 44 9 37 15 37 15 37 -8 0 -31 18 -24 25 10 8 37 -13 84 -40 88 -12
1 -41 -14 -69 -38 -27 -22 -54 -39 -60 -37 -6 2 -10 21 -9 42 1 21 -2 44 -8
51 -12 15 -1 59 36 139 12 28 35 89 50 135 15 47 34 102 43 123 19 47 22 196
5 327 -17 135 -27 176 -63 255 -18 39 -40 94 -51 123 -28 80 -68 130 -148 185
-14 9 -78 34 -141 55 -108 35 -122 37 -245 37 -117 0 -134 -2 -168 -22 -21
-13 -43 -23 -48 -23 -6 0 -27 -11 -47 -25 -49 -34 -89 -32 -134 5 -20 17 -65
44 -100 60 -53 25 -75 30 -138 29 -41 0 -94 -6 -117 -13z m626 -542 c2 -2 -8
-4 -22 -4 -36 0 -35 -16 1 -17 62 -2 82 -8 82 -23 0 -9 6 -24 13 -34 12 -16
13 -16 13 3 0 11 -4 17 -8 15 -4 -3 -8 2 -8 11 0 9 5 13 10 10 6 -3 10 0 10 7
1 8 7 5 16 -7 8 -11 17 -19 20 -17 11 8 25 -5 28 -23 2 -12 12 -21 25 -23 12
-2 20 -9 18 -15 -3 -7 -11 -11 -18 -9 -9 1 -8 -3 3 -11 10 -8 15 -17 11 -20
-3 -4 -1 -7 5 -7 27 0 48 -31 45 -68 -1 -24 1 -32 6 -23 7 11 10 9 16 -8 3
-11 11 -21 17 -21 7 0 7 5 -1 14 -9 11 -7 15 9 19 11 3 18 1 15 -4 -9 -13 18
-49 30 -39 6 5 11 -4 12 -26 3 -28 -1 -34 -16 -34 -10 0 -22 -7 -25 -16 -5
-14 -4 -15 8 -5 9 8 28 10 50 5 29 -5 36 -11 35 -28 -1 -16 -2 -17 -6 -4 -3
14 -9 16 -23 8 -13 -7 -19 -6 -24 6 -3 8 -11 12 -17 8 -9 -5 -7 -11 4 -19 9
-7 13 -16 9 -20 -4 -5 -1 -5 5 -1 7 4 21 2 30 -4 13 -8 13 -10 3 -7 -10 3 -16
-2 -16 -14 0 -10 2 -16 5 -14 2 3 10 0 18 -7 8 -6 13 -7 12 -2 -1 5 -1 18 0
29 1 16 3 17 11 5 5 -8 5 -17 0 -20 -5 -3 -5 -12 0 -20 13 -20 12 -30 -1 -30
-5 0 -8 4 -5 9 3 5 -16 8 -43 7 -28 -1 -48 1 -45 5 11 18 -133 33 -166 18 -9
-4 -35 -10 -59 -14 -24 -3 -50 -13 -58 -21 -12 -12 -33 -17 -60 -13 -3 0 -10
-6 -15 -15 -5 -9 -13 -14 -19 -11 -8 6 -14 -25 -10 -49 1 -5 -6 -3 -15 5 -16
12 -17 12 -11 -3 9 -23 15 -45 10 -35 -7 11 -31 8 -39 -5 -4 -7 -3 -8 5 -4 6
4 18 2 26 -4 17 -14 36 -5 29 15 -4 10 0 12 17 8 17 -5 20 -3 15 8 -4 8 0 5 8
-5 14 -17 20 -15 18 5 -1 3 10 5 23 3 14 -1 25 1 25 5 0 8 3 8 50 13 14 2 28
8 32 13 9 12 160 17 152 4 -3 -5 1 -7 8 -4 7 2 32 6 55 9 33 4 41 2 37 -9 -4
-10 0 -13 15 -10 12 2 21 -1 21 -6 0 -5 11 -21 25 -34 13 -14 19 -25 12 -25
-7 0 -6 -4 3 -10 13 -9 13 -11 0 -20 -12 -8 -11 -10 6 -10 12 0 27 -7 35 -16
8 -10 21 -13 37 -9 20 5 21 4 10 -8 -10 -11 -18 -12 -35 -4 -13 6 -23 14 -23
19 0 4 -8 8 -17 8 -12 0 -7 -8 17 -29 27 -22 39 -27 53 -20 13 7 17 6 17 -6 0
-8 -5 -15 -11 -15 -6 0 -4 -9 5 -22 12 -16 13 -25 4 -35 -8 -11 -7 -12 6 -7
11 4 16 1 16 -10 0 -9 5 -16 12 -16 6 0 3 -6 -7 -14 -11 -8 -24 -12 -30 -9 -5
3 -4 0 4 -8 10 -11 15 -11 18 -1 5 13 43 17 43 4 0 -4 -6 -14 -12 -21 -10 -11
-10 -13 0 -7 7 4 12 1 12 -8 0 -8 -6 -14 -12 -12 -7 1 -10 1 -5 -1 14 -8 7
-42 -10 -52 -12 -7 -13 -10 -4 -11 7 0 11 -6 8 -14 -3 -8 -1 -17 6 -20 7 -4 2
-4 -11 -2 -12 2 -20 0 -16 -5 3 -5 0 -9 -6 -9 -14 0 -3 -41 14 -52 8 -5 7 -8
-2 -8 -7 0 -11 -4 -8 -9 3 -5 0 -14 -8 -20 -11 -9 -18 -8 -30 4 -15 15 -16 15
-16 -4 0 -12 -4 -21 -10 -21 -5 0 -7 -6 -4 -14 3 -8 12 -12 19 -10 7 3 16 1
20 -5 3 -7 0 -8 -9 -5 -10 4 -16 1 -16 -7 0 -7 -3 -9 -7 -6 -9 9 -34 -13 -27
-24 3 -5 0 -9 -6 -9 -6 0 -8 -4 -5 -10 3 -5 1 -10 -4 -10 -10 0 -15 14 -12 33
0 4 -3 7 -7 7 -18 0 -21 -14 -7 -36 13 -20 12 -23 -1 -28 -9 -3 -19 -4 -24 -1
-4 3 -10 -2 -14 -10 -3 -8 2 -19 11 -24 14 -8 15 -12 4 -25 -7 -9 -17 -13 -22
-10 -13 8 -11 -10 4 -25 10 -11 8 -13 -10 -8 -13 3 -26 0 -30 -5 -3 -7 -1 -8
5 -4 7 4 12 2 12 -4 0 -7 7 -10 15 -6 8 3 15 1 15 -4 0 -9 -22 -15 -43 -11 -4
1 -3 -8 3 -19 12 -22 1 -27 -19 -7 -11 10 -12 9 -6 -1 4 -8 1 -18 -8 -25 -18
-15 -32 -51 -15 -41 7 4 8 3 4 -4 -4 -7 -14 -12 -22 -12 -8 0 -13 -4 -10 -9 3
-4 -6 -13 -19 -19 -25 -11 -35 -42 -14 -42 5 0 8 4 5 8 -3 5 1 9 9 9 8 0 15
-6 15 -14 0 -7 -3 -12 -7 -12 -26 4 -43 -3 -43 -19 0 -10 -5 -23 -11 -29 -8
-8 -8 -17 -1 -29 12 -22 -5 -42 -33 -37 -11 2 -14 1 -7 -3 6 -3 9 -10 6 -15
-4 -6 -11 -6 -19 1 -11 9 -12 7 -8 -11 5 -18 3 -21 -11 -16 -10 4 -15 3 -11
-3 3 -6 2 -10 -4 -10 -6 0 -8 -6 -5 -14 4 -11 0 -13 -16 -9 -16 4 -23 0 -27
-15 -3 -13 -10 -19 -19 -15 -8 3 -14 0 -14 -6 0 -7 -8 -7 -26 -1 -14 6 -23 6
-20 1 8 -12 -50 -35 -68 -28 -11 4 -13 1 -9 -10 5 -12 2 -15 -10 -10 -11 4
-17 1 -17 -7 0 -10 -10 -12 -40 -6 -37 7 -40 5 -49 -21 -5 -16 -12 -29 -15
-29 -3 0 -3 6 0 14 4 11 -5 14 -46 12 -28 -1 -54 3 -57 9 -4 5 -3 7 2 3 11
-10 35 10 35 29 0 12 -3 12 -16 -1 -19 -20 -25 -20 -18 -1 4 10 0 15 -10 15
-10 0 -16 -7 -14 -16 2 -10 -4 -19 -12 -21 -13 -4 -13 -3 0 7 12 9 8 10 -17 5
-18 -4 -34 -2 -38 4 -3 6 -13 11 -21 11 -8 0 -12 -5 -9 -10 4 -6 11 -8 16 -5
5 4 9 1 9 -4 0 -13 -10 -14 -29 -2 -7 5 -11 13 -7 19 3 5 -1 15 -8 21 -11 9
-15 9 -19 -1 -2 -7 -2 -3 0 10 3 20 -1 23 -24 21 -5 0 -7 -7 -5 -15 2 -8 -2
-14 -8 -14 -5 0 -9 3 -9 8 5 29 -2 39 -27 34 -17 -3 -31 2 -44 16 -16 17 -17
22 -5 38 20 26 18 33 -5 27 -21 -6 -27 6 -10 23 7 7 6 11 -4 11 -8 0 -13 -4
-10 -9 3 -4 -2 -8 -10 -8 -9 0 -16 9 -16 20 0 11 -5 20 -10 20 -6 0 -9 3 -9 8
4 23 -2 42 -12 37 -6 -4 -8 -13 -5 -21 7 -18 1 -18 -18 2 -14 13 -16 14 -16 0
0 -8 -5 -18 -11 -22 -8 -4 -9 1 -4 15 6 19 3 21 -17 19 -13 -2 -29 -7 -37 -12
-9 -6 -12 -5 -7 2 3 6 1 14 -6 18 -7 5 -3 10 13 16 19 7 21 11 9 18 -12 8 -12
10 4 10 13 0 17 -5 13 -19 -3 -14 -1 -18 9 -14 9 3 11 15 7 36 -7 38 -13 47
-13 21 0 -16 -2 -17 -10 -4 -26 41 2 40 40 0 16 -17 29 -34 29 -38 1 -6 34 -7
46 -2 3 1 10 3 17 4 19 2 20 24 1 22 -10 0 -17 5 -15 12 1 8 -2 11 -8 7 -6 -4
-9 -13 -6 -21 3 -8 1 -14 -5 -14 -7 0 -9 10 -5 26 6 23 4 25 -15 19 -15 -5
-19 -4 -14 4 4 7 1 18 -5 26 -7 8 -10 21 -7 30 4 8 2 17 -4 20 -5 4 -9 3 -8
-2 5 -27 -1 -35 -16 -23 -11 9 -13 16 -5 24 15 15 12 29 -6 22 -8 -3 -12 -2
-9 4 3 6 14 10 23 11 14 0 13 2 -3 8 -11 5 -23 4 -26 -1 -4 -7 -9 -6 -13 0 -3
6 4 14 16 18 34 10 63 54 37 54 -5 0 -8 -4 -4 -9 3 -6 -5 -15 -17 -22 -22 -12
-22 -11 -8 6 14 17 13 18 -5 11 -17 -6 -16 -4 5 21 14 15 18 22 10 16 -20 -18
-35 -16 -20 2 10 12 7 18 -19 32 -17 10 -31 22 -31 27 0 5 -7 3 -15 -4 -16
-13 -16 -12 -19 29 -1 8 -7 16 -15 19 -8 3 -11 0 -7 -7 4 -6 3 -11 -3 -11 -5
0 -13 5 -16 10 -3 6 -1 10 4 10 15 0 14 27 -1 36 -6 4 -8 3 -5 -4 5 -6 -1 -8
-15 -4 -12 3 -17 7 -10 10 13 4 17 23 5 21 -24 -4 -32 4 -30 29 1 15 6 30 10
33 5 4 -3 9 -17 13 -22 5 -25 10 -20 31 4 15 2 25 -5 25 -6 0 -11 9 -11 21 0
11 -4 18 -9 15 -5 -3 -9 10 -9 30 0 28 3 34 17 30 14 -5 14 -4 -1 8 -19 14
-25 32 -8 21 6 -3 10 3 10 15 0 13 -4 19 -12 14 -7 -5 -8 -3 -2 7 4 8 7 25 6
39 -2 25 -2 25 8 3 11 -26 16 -28 26 -11 4 7 3 8 -4 4 -7 -4 -12 -1 -12 8 0 9
5 16 12 16 6 0 8 3 5 7 -4 3 1 15 10 26 10 10 18 22 18 26 0 3 4 5 8 3 4 -1 0
9 -9 24 -16 24 -16 26 0 42 10 9 16 13 14 7 -2 -5 2 -10 7 -10 5 0 9 3 8 6 -1
4 6 5 16 2 13 -3 17 -11 13 -31 -5 -25 -4 -26 12 -12 12 9 14 16 7 18 -9 3 -8
8 1 20 7 9 8 13 2 9 -7 -4 -11 2 -11 18 0 14 3 22 8 20 4 -3 15 10 24 29 19
40 107 85 129 67 7 -6 16 -8 19 -5 15 15 71 12 119 -7 29 -11 60 -18 70 -16
10 3 16 1 12 -4 -3 -5 0 -9 5 -9 15 0 51 -37 43 -44 -3 -3 0 -7 6 -7 21 -2 27
-4 40 -12 6 -5 12 -4 12 1 0 6 9 8 21 5 12 -4 18 -11 15 -20 -3 -8 -1 -11 4
-8 14 9 13 35 -2 35 -6 0 -8 3 -5 6 4 4 13 1 22 -6 8 -7 15 -8 15 -2 0 5 -7
15 -15 22 -8 7 -12 17 -9 22 3 5 12 1 20 -9 8 -11 13 -13 14 -5 0 6 -9 21 -20
32 -11 11 -20 25 -20 31 0 6 -6 9 -12 7 -7 -3 -19 1 -26 8 -7 7 -21 11 -32 9
-12 -2 -17 1 -14 9 3 8 -2 16 -11 20 -9 3 -13 2 -10 -4 3 -6 1 -10 -4 -10 -6
0 -11 5 -11 11 0 5 -4 8 -9 4 -5 -3 -13 0 -16 6 -4 5 -13 8 -21 5 -7 -3 -19 0
-26 7 -14 13 -128 14 -185 2 -23 -5 -33 -4 -33 4 0 7 6 9 13 5 6 -4 8 -3 4 1
-4 5 -13 10 -20 11 -7 1 -21 5 -32 9 -15 5 -16 4 -6 -3 16 -11 5 -36 -13 -29
-7 3 -19 -3 -26 -13 -13 -18 -14 -18 -26 -2 -7 10 -16 13 -21 8 -4 -5 -2 -11
6 -14 7 -2 9 -7 4 -11 -5 -3 -19 -19 -31 -35 l-22 -29 0 26 c0 19 4 25 15 21
18 -7 20 12 3 19 -9 4 -5 12 11 25 16 13 20 21 12 26 -6 4 -15 4 -21 1 -5 -3
-10 -1 -10 5 0 6 -5 8 -10 5 -8 -5 -8 -11 0 -20 14 -17 -7 -32 -23 -16 -8 8
-8 11 2 11 7 0 10 4 7 9 -8 13 21 34 39 27 25 -9 17 2 -12 17 l-27 15 27 0
c15 0 25 -4 22 -8 -2 -4 4 -16 14 -26 9 -11 16 -25 14 -31 -2 -6 1 -14 7 -18
7 -4 9 2 6 19 -3 19 1 30 14 38 10 6 16 18 13 25 -4 9 0 11 11 7 8 -3 14 -11
13 -17 -1 -7 5 -10 13 -9 8 2 23 5 33 7 26 6 37 15 37 30 0 9 6 12 15 9 8 -4
15 -1 15 6 0 6 5 8 10 5 6 -4 9 -1 8 7 -2 7 4 12 14 10 12 -2 16 2 12 13 -8
19 10 20 26 0 7 -8 18 -15 24 -15 6 0 5 4 -3 9 -9 6 -10 11 -2 15 6 4 9 12 5
17 -4 6 -11 6 -19 -1 -9 -8 -15 -8 -20 0 -3 5 1 10 10 10 8 0 20 11 25 24 10
26 30 44 30 26 0 -7 6 -8 16 -2 9 5 25 7 34 5 14 -4 19 4 24 41 8 50 12 53 42
32 17 -13 21 -13 21 -1 0 8 -5 11 -10 8 -6 -4 -8 0 -4 9 3 9 1 20 -4 25 -6 6
-4 10 5 10 8 0 13 -4 10 -9 -3 -4 0 -8 5 -8 6 0 11 6 11 14 0 8 9 17 19 21 10
3 21 15 24 27 6 22 6 22 27 3 21 -19 22 -19 32 -2 6 12 16 16 29 12 12 -4 19
-2 19 6 0 7 8 5 22 -7 14 -12 18 -13 10 -3 -10 14 -8 16 19 17 20 0 37 9 51
27 20 25 21 26 41 8 11 -10 17 -12 12 -4 -11 19 12 30 54 24 20 -3 38 -7 40
-9z m-464 -124 c3 -5 1 -10 -4 -10 -6 0 -11 5 -11 10 0 6 2 10 4 10 3 0 8 -4
11 -10z m690 -10 c3 -5 1 -10 -4 -10 -6 0 -11 5 -11 10 0 6 2 10 4 10 3 0 8
-4 11 -10z m-715 -56 c0 -9 -9 -18 -20 -21 -11 -3 -17 -9 -14 -14 9 -15 -13
-10 -25 5 -9 11 -9 14 1 13 34 -1 48 4 48 18 0 8 2 15 5 15 3 0 5 -7 5 -16z
m766 -13 c-3 -5 6 -12 22 -16 l27 -7 -28 -10 c-21 -8 -32 -7 -40 2 -9 10 -9
11 2 5 10 -6 12 -2 6 14 -4 13 -2 21 5 21 6 0 9 -4 6 -9z m179 -261 c3 -5 1
-10 -4 -10 -6 0 -11 5 -11 10 0 6 2 10 4 10 3 0 8 -4 11 -10z m18 -25 c-3 -9
-8 -14 -10 -11 -3 3 -2 9 2 15 9 16 15 13 8 -4z m13 -31 c-4 -9 -9 -15 -11
-12 -3 3 -3 13 1 22 4 9 9 15 11 12 3 -3 3 -13 -1 -22z m40 -52 c-9 -2 -16 -8
-16 -13 0 -5 -5 -9 -11 -9 -5 0 -8 4 -4 9 3 5 1 12 -5 16 -23 14 -8 22 21 12
20 -8 25 -13 15 -15z m-1451 -2 c3 -5 -1 -10 -10 -10 -9 0 -13 5 -10 10 3 6 8
10 10 10 2 0 7 -4 10 -10z m1444 -57 c0 -11 -3 -13 -6 -5 -2 6 -10 9 -15 6 -7
-4 -8 -2 -4 4 11 18 26 14 25 -5z m-1452 -15 c2 -18 0 -20 -7 -8 -12 18 -13
30 -2 30 4 0 9 -10 9 -22z m20 -10 c-3 -8 -6 -5 -6 6 -1 11 2 17 5 13 3 -3 4
-12 1 -19z m33 12 c0 -5 -5 -10 -11 -10 -5 0 -7 5 -4 10 3 6 8 10 11 10 2 0 4
-4 4 -10z m1414 -38 c3 -5 -1 -9 -9 -9 -8 0 -12 4 -9 9 3 4 7 8 9 8 2 0 6 -4
9 -8z m-1474 -51 c0 -6 -4 -12 -8 -15 -5 -3 -9 1 -9 9 0 8 4 15 9 15 4 0 8 -4
8 -9z m1520 -70 c11 -16 17 -32 12 -35 -5 -3 -16 10 -25 29 -20 43 -15 45 13
6z m-1556 -249 c3 -5 -1 -9 -9 -9 -8 0 -12 4 -9 9 3 4 7 8 9 8 2 0 6 -4 9 -8z
m1556 -17 c7 -9 8 -15 2 -15 -5 0 -12 7 -16 15 -3 8 -4 15 -2 15 2 0 9 -7 16
-15z m-1530 -95 c0 -5 -2 -10 -4 -10 -3 0 -8 5 -11 10 -3 6 -1 10 4 10 6 0 11
-4 11 -10z m1423 -127 c3 -5 -14 -9 -36 -10 -38 -1 -39 0 -12 7 42 11 43 11
48 3z m-1261 -60 c-6 -2 -9 -10 -6 -15 4 -7 2 -8 -4 -4 -18 11 -14 26 6 25 10
0 12 -3 4 -6z m1305 -19 c-3 -3 -12 -4 -19 -1 -8 3 -5 6 6 6 11 1 17 -2 13 -5z
m-1390 -31 c2 -6 -3 -13 -12 -16 -10 -5 -15 0 -15 14 0 21 21 22 27 2z m1399
-10 c-6 -6 -36 9 -36 18 0 5 9 4 20 -3 10 -7 18 -14 16 -15z m-1352 -39 c2
-10 9 -20 16 -22 9 -3 11 1 6 14 -6 15 -5 17 5 6 11 -10 10 -15 -4 -29 -11
-11 -17 -13 -17 -5 0 7 -7 12 -15 12 -8 0 -15 -5 -15 -12 0 -6 -2 -9 -5 -6 -3
2 0 19 6 37 12 34 19 35 23 5z m1271 6 c-2 -27 -15 -38 -15 -13 0 16 8 33 15
33 1 0 1 -9 0 -20z m-1337 -29 c9 -25 8 -29 -4 -24 -7 3 -12 9 -9 13 8 13 -6
40 -18 33 -6 -3 -7 -1 -3 6 10 16 22 6 34 -28z m32 29 c0 -5 -5 -10 -11 -10
-5 0 -7 5 -4 10 3 6 8 10 11 10 2 0 4 -4 4 -10z m1344 -5 c3 -8 1 -15 -4 -15
-6 0 -10 7 -10 15 0 8 2 15 4 15 2 0 6 -7 10 -15z m16 -30 c-7 -8 -20 -15 -29
-15 -11 0 -8 5 9 14 33 19 35 19 20 1z m-1270 -5 c0 -5 -5 -10 -11 -10 -5 0
-7 5 -4 10 3 6 8 10 11 10 2 0 4 -4 4 -10z m1126 -3 c11 4 14 -3 12 -30 -2
-19 -7 -33 -11 -30 -5 3 -7 15 -5 28 3 15 0 22 -10 21 -8 0 -17 6 -20 14 -3
12 -2 12 8 3 7 -6 19 -9 26 -6z m85 -10 c-6 -8 -8 -17 -4 -20 3 -4 1 -7 -5 -7
-16 0 -15 27 1 33 19 8 20 8 8 -6z m-1285 -16 c-4 -5 -1 -12 4 -14 6 -3 5 -4
-2 -3 -15 3 -23 26 -8 26 6 0 9 -4 6 -9z m110 -3 c4 -7 3 -8 -4 -4 -7 4 -23
-4 -37 -18 -14 -15 -31 -26 -37 -26 -6 0 -3 -10 8 -22 10 -12 13 -18 7 -14 -8
4 -13 2 -14 -6 0 -7 -5 2 -11 21 -7 24 -6 37 3 45 9 8 10 8 4 -2 -6 -11 -3
-11 14 0 12 7 21 16 21 20 0 3 8 9 18 11 9 3 18 5 19 6 1 0 5 -4 9 -11z m1074
-8 c0 -5 -5 -10 -11 -10 -5 0 -7 5 -4 10 3 6 8 10 11 10 2 0 4 -4 4 -10z
m-1235 -10 c-3 -5 -11 -10 -16 -10 -6 0 -7 5 -4 10 3 6 11 10 16 10 6 0 7 -4
4 -10z m1318 -15 c-3 -9 -8 -14 -10 -11 -3 3 -2 9 2 15 9 16 15 13 8 -4z m-80
-32 c-5 -12 -7 -12 -14 -1 -7 11 -11 10 -19 -2 -11 -17 -13 -10 -4 13 3 9 13
13 24 10 11 -3 16 -11 13 -20z m42 -23 c-3 -5 -12 -10 -18 -10 -7 0 -6 4 3 10
19 12 23 12 15 0z m-48 -6 c-3 -3 -12 -4 -19 -1 -8 3 -5 6 6 6 11 1 17 -2 13
-5z m-1197 -14 c0 -5 -2 -10 -4 -10 -3 0 -8 5 -11 10 -3 6 -1 10 4 10 6 0 11
-4 11 -10z m1116 -35 c-11 -8 -24 -15 -30 -15 -5 0 -1 7 10 15 10 8 24 14 29
14 6 0 1 -6 -9 -14z m-1002 -7 c-3 -4 -9 -8 -15 -8 -5 0 -9 4 -9 8 0 5 7 9 15
9 8 0 12 -4 9 -9z m1046 -18 c0 -5 -2 -10 -4 -10 -3 0 -8 5 -11 10 -3 6 -1 10
4 10 6 0 11 -4 11 -10z m-1006 -16 c3 -8 2 -12 -4 -9 -6 3 -10 10 -10 16 0 14
7 11 14 -7z m46 1 c-10 -12 -10 -15 0 -15 8 0 11 -3 7 -6 -3 -3 -10 -3 -16 0
-12 8 -3 36 11 36 6 0 5 -6 -2 -15z m25 -55 c3 -5 1 -10 -4 -10 -6 0 -11 5
-11 10 0 6 2 10 4 10 3 0 8 -4 11 -10z m665 -94 c0 -2 -11 -11 -25 -20 -20
-13 -23 -13 -19 -2 3 8 13 17 22 19 10 3 18 5 20 6 1 0 2 -1 2 -3z m-845 -106
c3 -5 -1 -10 -10 -10 -9 0 -13 5 -10 10 3 6 8 10 10 10 2 0 7 -4 10 -10z m94
-55 l0 -20 -9 20 c-6 15 -9 16 -11 5 -1 -8 -3 -19 -4 -25 -2 -5 -3 -16 -4 -23
0 -7 -5 -10 -11 -7 -18 11 -11 -1 12 -21 13 -10 18 -12 11 -4 -14 20 7 42 28
29 11 -7 11 -9 1 -9 -11 0 -10 -3 1 -15 9 -8 29 -13 50 -12 25 2 34 0 30 -10
-3 -9 -10 -10 -22 -4 -13 7 -20 4 -30 -11 -7 -11 -10 -23 -7 -26 3 -3 6 0 6 8
0 10 3 10 18 -1 9 -7 14 -9 10 -5 -9 10 32 35 45 28 5 -2 -2 -11 -14 -20 -19
-13 -20 -17 -7 -26 8 -6 17 -18 21 -26 4 -12 6 -11 6 3 1 9 6 17 12 17 5 0 7
5 3 12 -4 7 -3 8 5 4 6 -4 9 -12 6 -17 -4 -5 -2 -9 4 -9 13 0 2 -32 -16 -47
-16 -12 0 -29 17 -18 6 3 10 1 10 -5 0 -6 5 -8 12 -4 6 4 8 3 5 -3 -4 -6 0
-16 8 -23 8 -7 15 -9 15 -5 0 4 6 2 14 -4 12 -10 13 -8 9 8 -3 12 -13 21 -22
21 -9 0 -4 6 13 15 25 13 31 13 45 2 17 -15 51 -19 51 -6 0 4 9 11 20 14 11 4
17 11 14 17 -4 6 -9 5 -15 -3 -6 -10 -11 -6 -18 14 -6 15 -18 27 -26 27 -10 0
-13 -5 -9 -12 6 -10 5 -10 -8 -1 -8 7 -18 10 -21 6 -4 -3 -7 -1 -7 6 0 8 7 11
18 7 15 -5 15 -5 1 6 -10 9 -13 21 -8 38 5 17 7 19 8 7 1 -10 5 -15 11 -12 5
3 7 0 5 -7 -4 -10 5 -15 32 -16 21 -2 41 -9 46 -17 4 -8 13 -15 18 -15 6 0 3
7 -5 16 -9 8 -16 20 -16 25 0 15 17 10 24 -6 3 -8 12 -12 20 -9 8 3 24 0 36
-6 15 -8 20 -8 16 -1 -4 6 -2 11 4 11 6 0 8 5 5 10 -4 6 -1 9 7 8 7 -2 16 -10
20 -18 5 -12 7 -12 7 3 1 21 8 22 28 1 15 -15 17 -14 28 6 11 20 13 21 19 5 3
-10 1 -24 -5 -31 -9 -12 -9 -13 4 -9 20 8 32 -12 17 -30 -8 -10 -8 -15 1 -20
6 -4 15 -2 19 5 4 7 29 13 56 14 28 1 47 6 44 11 -3 6 -8 9 -12 7 -5 -1 -8 2
-8 8 0 6 -5 10 -11 10 -5 0 -8 -4 -5 -9 9 -14 -25 -23 -40 -10 -11 9 -14 8
-14 -2 -1 -9 -4 -7 -11 4 -8 14 -8 22 1 30 10 9 11 9 6 0 -4 -7 -2 -13 3 -13
6 0 11 8 12 18 0 12 3 10 11 -8 9 -20 12 -22 15 -8 3 11 10 15 20 11 12 -5 15
-2 10 10 -4 11 -1 17 8 17 8 0 15 -7 15 -15 0 -8 -4 -15 -9 -15 -5 0 5 -14 22
-32 20 -20 27 -33 19 -36 -6 -2 -12 -8 -12 -13 0 -6 5 -7 12 -3 7 4 8 3 4 -5
-11 -17 -29 -2 -23 20 3 11 1 16 -4 13 -5 -3 -7 -22 -3 -41 5 -26 4 -34 -5
-29 -6 4 -14 0 -17 -9 -6 -13 -8 -14 -15 -3 -6 9 -9 9 -9 1 0 -19 18 -25 42
-13 21 10 21 10 -2 -9 -21 -18 -22 -20 -5 -15 18 6 17 4 -3 -10 -28 -21 -21
-35 14 -28 19 3 22 7 12 13 -7 5 -11 9 -8 10 3 0 14 2 25 4 11 3 26 -3 34 -13
13 -16 13 -16 8 1 -4 10 -1 17 5 17 7 0 4 6 -6 13 -18 13 -18 14 -1 21 14 5
15 9 4 22 -11 13 -9 14 13 9 24 -6 26 -4 24 19 -3 23 4 30 25 28 4 -1 5 8 2
19 -5 19 -6 19 -27 2 l-21 -18 19 22 c16 19 22 21 34 10 11 -8 14 -8 9 0 -4 6
-2 13 5 15 6 2 11 18 10 35 0 20 5 34 15 37 13 5 14 4 4 -8 -10 -12 -8 -13 9
-9 18 5 21 11 16 35 -5 25 -3 29 10 24 9 -3 18 -6 20 -6 2 0 4 -5 4 -11 0 -5
-4 -7 -10 -4 -5 3 -10 1 -10 -4 0 -6 7 -11 15 -11 13 0 20 18 16 43 -1 4 10 5
24 1 22 -5 24 -4 18 12 -6 17 -5 18 12 4 17 -14 18 -13 13 7 -4 13 -1 26 5 30
7 3 9 3 5 -2 -4 -4 -3 -14 4 -22 6 -7 8 -16 4 -20 -3 -3 1 -14 9 -23 15 -17
11 -50 -6 -50 -6 0 -5 8 0 19 8 14 7 22 -4 31 -9 7 -19 9 -23 5 -4 -4 -1 -10
6 -12 6 -3 12 -11 12 -19 0 -8 -6 -11 -15 -8 -8 4 -15 1 -15 -5 0 -6 5 -10 12
-8 25 5 20 -36 -9 -60 -24 -21 -25 -24 -7 -20 13 3 21 -1 21 -10 0 -8 -6 -12
-16 -8 -8 3 -12 3 -9 -1 4 -3 1 -18 -6 -33 -7 -14 -11 -32 -9 -39 3 -7 -4 -16
-15 -19 -11 -3 -23 -11 -26 -18 -3 -9 0 -12 9 -9 12 5 12 1 2 -20 -7 -14 -15
-26 -19 -26 -5 0 -8 -7 -8 -15 0 -7 -6 -18 -14 -22 -8 -4 -16 -12 -17 -18 -8
-35 -12 -45 -19 -45 -5 0 -12 -12 -18 -27 -5 -16 -50 -79 -98 -141 -87 -111
-173 -259 -194 -335 -9 -31 -15 -38 -31 -34 -11 3 -17 1 -13 -5 4 -6 1 -14 -5
-18 -33 -20 -142 -136 -147 -157 -9 -32 -18 -29 -55 20 -18 23 -61 72 -96 110
-35 37 -63 76 -63 86 0 10 -10 33 -23 52 -30 45 -56 110 -49 128 3 8 0 11 -6
7 -15 -9 -32 26 -25 53 4 15 1 21 -8 19 -9 -2 -14 5 -13 19 0 12 -3 20 -8 17
-8 -5 -12 10 -9 34 1 6 -6 12 -16 12 -15 0 -16 2 -3 10 9 6 17 5 22 -3 6 -9 8
-9 8 1 0 6 5 12 10 12 7 0 7 -6 0 -19 -16 -30 -12 -38 6 -12 20 28 7 44 -34
44 -28 0 -29 2 -26 41 5 52 -13 91 -34 74 -11 -10 -13 -8 -10 8 2 11 -2 18 -9
17 -7 -2 -10 4 -6 13 5 12 7 13 14 2 6 -10 13 -8 29 10 11 12 16 22 11 22 -6
0 -14 -7 -19 -17 -7 -12 -9 -7 -8 20 1 36 -16 53 -22 21 -3 -10 0 -14 7 -10
17 11 13 1 -8 -18 -17 -16 -18 -15 -14 25 2 23 -1 47 -8 55 -6 8 -8 14 -3 14
4 0 0 6 -10 13 -16 12 -16 14 -2 14 15 0 20 -10 17 -29 -2 -13 16 -9 29 7 11
13 10 14 -2 10 -20 -8 -42 37 -34 70 6 25 6 26 -9 11 -21 -20 -22 -20 -28 5
-4 16 -3 18 9 8 17 -14 19 0 5 48 -6 21 -5 35 2 43 9 10 8 12 -5 7 -26 -9 -30
8 -8 28 16 14 18 21 8 32 -16 19 -22 56 -7 48 6 -4 9 0 7 11 -3 16 3 19 40 18
30 -1 41 3 38 11 -3 10 1 10 20 1 14 -6 24 -19 23 -31z m1074 -11 c-7 -19 -10
-18 -16 5 -3 13 -1 18 9 14 7 -2 10 -11 7 -19z m-89 -12 c3 -5 -1 -9 -9 -9 -8
0 -12 4 -9 9 3 4 7 8 9 8 2 0 6 -4 9 -8z m100 -27 c-4 -8 -10 -12 -15 -9 -11
6 -2 24 11 24 5 0 7 -7 4 -15z m-1219 -25 c3 -5 1 -10 -4 -10 -6 0 -11 5 -11
10 0 6 2 10 4 10 3 0 8 -4 11 -10z m321 -45 c-3 -20 -16 -31 -16 -13 0 13 8
28 16 28 1 0 1 -7 0 -15z m44 -10 c-9 -11 -9 -15 -1 -15 8 0 9 -5 2 -19 -6
-10 -7 -21 -4 -25 3 -3 -1 -6 -10 -6 -9 0 -20 -7 -24 -15 -5 -9 -13 -11 -22
-6 -7 5 -10 14 -7 20 4 6 12 9 17 6 5 -4 16 1 25 9 14 15 14 17 0 22 -13 5
-12 9 7 25 27 22 34 24 17 4z m627 -27 c-3 -8 -6 -5 -6 6 -1 11 2 17 5 13 3
-3 4 -12 1 -19z m-22 2 c3 -6 -1 -7 -9 -4 -18 7 -21 14 -7 14 6 0 13 -4 16
-10z m-553 -45 c2 3 5 -2 5 -10 0 -19 -5 -19 -23 -1 -18 18 -19 32 -1 17 8 -6
16 -9 19 -6z m485 -1 c2 -6 -3 -11 -12 -11 -8 0 -15 7 -15 15 0 15 22 12 27
-4z m-801 -309 c-3 -8 -1 -15 4 -15 5 0 7 -7 3 -17 -5 -14 -8 -13 -15 6 -4 13
-6 27 -2 32 9 15 17 10 10 -6z m529 -1741 c13 -5 14 -8 3 -15 -19 -13 -28 -11
-28 6 0 17 2 18 25 9z m1 -74 c17 0 19 -26 2 -33 -16 -6 -58 9 -58 21 0 15 13
23 28 17 7 -3 20 -5 28 -5z"/>
<path d="M5468 6883 c7 -3 16 -2 19 1 4 3 -2 6 -13 5 -11 0 -14 -3 -6 -6z"/>
<path d="M5112 6845 c3 -28 11 -24 13 5 1 11 -2 20 -7 20 -4 0 -7 -11 -6 -25z"/>
<path d="M5597 6824 c7 -3 9 -13 6 -22 -4 -14 -3 -14 5 -2 12 16 7 30 -11 29
-9 0 -9 -2 0 -5z"/>
<path d="M4995 6739 c-4 -11 -4 -23 -1 -26 3 -4 6 1 6 10 0 8 5 17 12 19 9 3
9 6 1 11 -7 4 -14 -1 -18 -14z"/>
<path d="M5660 6757 c0 -2 6 -10 14 -16 11 -9 16 -9 22 1 4 7 4 10 -1 6 -4 -4
-14 -3 -22 3 -7 6 -13 9 -13 6z"/>
<path d="M4890 6681 c0 -6 4 -13 10 -16 6 -3 7 1 4 9 -7 18 -14 21 -14 7z"/>
<path d="M4930 6686 c0 -2 7 -7 16 -10 8 -3 12 -2 9 4 -6 10 -25 14 -25 6z"/>
<path d="M5644 6678 c-4 -7 -3 -8 4 -4 16 10 15 -6 0 -24 -11 -12 -10 -12 5
-1 18 14 23 41 8 41 -6 0 -13 -5 -17 -12z"/>
<path d="M5764 6635 c3 -9 6 -21 6 -26 0 -5 7 -9 15 -9 22 0 18 23 -6 39 -19
11 -21 11 -15 -4z"/>
<path d="M5650 6630 c-9 -6 -10 -10 -3 -10 6 0 15 5 18 10 8 12 4 12 -15 0z"/>
<path d="M5700 6610 c0 -5 5 -10 11 -10 5 0 7 5 4 10 -3 6 -8 10 -11 10 -2 0
-4 -4 -4 -10z"/>
<path d="M4800 6530 c0 -5 5 -10 11 -10 5 0 7 5 4 10 -3 6 -8 10 -11 10 -2 0
-4 -4 -4 -10z"/>
<path d="M4745 6520 c3 -5 8 -10 11 -10 2 0 4 5 4 10 0 6 -5 10 -11 10 -5 0
-7 -4 -4 -10z"/>
<path d="M5414 6279 c-3 -6 -2 -15 3 -20 5 -5 9 -1 9 11 0 23 -2 24 -12 9z"/>
<path d="M5690 6284 c8 -4 22 -13 30 -20 10 -9 20 -10 30 -4 8 5 13 10 10 11
-3 0 -12 2 -20 4 -44 11 -63 15 -50 9z"/>
<path d="M4755 6261 c-3 -6 4 -9 15 -8 11 1 20 5 20 9 0 11 -28 10 -35 -1z"/>
<path d="M5516 6255 c-17 -18 -40 -20 -30 -3 4 7 3 8 -5 4 -6 -4 -9 -12 -6
-17 4 -5 -1 -16 -9 -25 -22 -21 -20 -41 4 -47 13 -3 25 3 37 22 16 23 53 45
39 23 -3 -5 8 -21 24 -37 24 -23 35 -27 60 -21 18 3 40 16 50 28 15 19 20 20
33 9 17 -14 11 -45 -7 -38 -7 3 -20 -1 -30 -8 -16 -12 -14 -13 18 -11 20 2 36
0 36 -4 0 -4 17 -4 37 0 20 5 41 7 45 4 4 -3 11 1 14 9 3 8 13 13 23 10 12 -3
25 4 35 18 9 13 16 19 16 13 0 -5 -4 -14 -10 -20 -6 -6 -4 -10 8 -11 12 -1 17
6 17 22 0 13 -3 21 -7 19 -10 -6 -29 32 -20 40 3 4 -1 4 -11 0 -11 -4 -17 -1
-17 7 0 7 -3 9 -6 6 -4 -4 -1 -15 7 -24 12 -16 12 -17 -2 -6 -9 7 -20 9 -24 5
-5 -4 -5 -2 -2 4 4 7 0 17 -8 24 -11 9 -15 10 -15 1 0 -8 -6 -7 -16 3 -15 16
-39 13 -29 -4 3 -4 -7 -7 -22 -5 -16 2 -62 5 -103 6 -41 0 -82 5 -92 10 -11 6
-21 4 -32 -6z"/>
<path d="M4935 6250 c-12 -4 -50 -8 -86 -9 -36 0 -84 -7 -106 -15 -36 -13 -42
-13 -58 2 -16 16 -17 16 -10 -7 5 -16 4 -21 -4 -17 -6 4 -11 2 -11 -3 0 -6
-15 -11 -32 -11 -28 -1 -31 -2 -17 -13 9 -7 14 -18 12 -24 -3 -9 6 -13 24 -13
16 0 34 -5 40 -11 6 -6 13 -7 17 -1 3 5 26 7 51 5 37 -4 45 -2 45 12 0 9 -4
14 -9 11 -16 -10 -20 22 -5 35 12 10 17 8 28 -7 8 -10 12 -23 9 -29 -4 -5 -3
-7 1 -3 5 4 19 3 32 -2 32 -12 78 5 94 35 16 29 27 31 52 9 17 -16 17 -18 0
-31 -15 -12 -14 -12 9 -4 15 5 30 7 33 4 6 -7 7 -1 9 45 1 17 -4 27 -14 28 -7
0 -22 4 -32 9 -10 4 -21 5 -24 1 -3 -3 -11 -2 -17 3 -6 5 -20 5 -31 1z"/>
<path d="M5436 6245 c-10 -8 -22 -12 -27 -10 -4 3 -10 1 -14 -5 -3 -5 -1 -10
5 -10 6 0 9 -4 6 -8 -3 -5 1 -9 9 -9 8 0 12 4 9 9 -3 4 -1 8 3 8 5 0 14 9 21
20 14 24 13 24 -12 5z"/>
<path d="M4530 6243 c0 -6 7 -19 16 -28 13 -13 19 -14 25 -4 4 7 5 18 2 23 -4
6 -8 5 -11 -3 -3 -8 -8 -7 -18 6 -7 10 -14 13 -14 6z"/>
<path d="M4698 6243 c7 -3 16 -2 19 1 4 3 -2 6 -13 5 -11 0 -14 -3 -6 -6z"/>
<path d="M5089 6242 c11 -8 10 -12 -5 -22 -15 -9 -15 -10 -2 -6 9 3 19 0 22
-7 3 -7 4 -1 3 12 -1 14 -9 26 -17 28 -12 4 -12 3 -1 -5z"/>
<path d="M4525 5919 c-4 -6 -5 -12 -2 -15 2 -3 7 2 10 11 7 17 1 20 -8 4z"/>
<path d="M5376 5849 c-21 -12 -47 -18 -57 -16 -11 3 -17 1 -13 -4 11 -18 -7
-29 -22 -15 -8 9 -21 13 -28 10 -8 -3 -42 4 -76 15 -82 27 -108 27 -120 -1 -5
-13 -9 -18 -10 -13 0 6 -4 3 -10 -5 -7 -11 -11 -9 -19 13 -6 16 -15 25 -21 22
-14 -9 -12 -17 3 -10 6 4 4 0 -5 -7 -16 -13 -15 -16 5 -41 12 -14 31 -27 42
-28 37 -3 55 1 55 12 0 5 -4 8 -9 5 -5 -3 -14 0 -20 8 -9 11 0 13 56 9 37 -2
73 -9 79 -14 20 -17 101 -22 140 -9 34 12 38 11 54 -10 15 -19 18 -20 29 -6 9
10 18 13 25 7 15 -12 82 11 79 27 -2 7 1 12 7 12 5 0 9 9 7 20 -4 25 -17 38
-17 17 0 -9 -6 -17 -12 -17 -16 0 -47 19 -33 21 17 1 -29 18 -50 18 -11 0 -37
-9 -59 -20z m107 -38 c5 -1 5 -6 2 -11 -4 -6 -11 -7 -17 -4 -8 5 -9 1 -4 -12
5 -15 4 -16 -5 -7 -6 6 -18 9 -25 6 -8 -3 -14 -1 -14 4 0 16 21 31 38 28 10
-2 21 -4 25 -4z"/>
<path d="M4620 5730 c0 -5 5 -10 11 -10 5 0 7 5 4 10 -3 6 -8 10 -11 10 -2 0
-4 -4 -4 -10z"/>
<path d="M4705 5700 c-4 -6 -11 -7 -17 -4 -7 4 -8 2 -4 -4 10 -17 33 -15 33 3
0 18 -3 19 -12 5z"/>
<path d="M5106 5675 c-18 -13 -18 -14 3 -12 11 1 21 7 21 14 0 16 0 16 -24 -2z"/>
<path d="M5448 5676 c4 -6 7 -14 7 -18 0 -19 11 -14 11 6 0 12 -6 23 -13 23
-6 0 -9 -5 -5 -11z"/>
<path d="M5016 5664 c-9 -23 -8 -24 12 -24 14 0 15 2 2 10 -10 6 -11 10 -2 10
6 0 12 5 12 10 0 16 -17 12 -24 -6z"/>
<path d="M4965 5649 c7 -21 6 -22 -8 -11 -10 9 -17 10 -22 2 -3 -5 -15 -10
-26 -10 -10 0 -19 -3 -19 -8 0 -4 -15 -16 -34 -26 -19 -10 -37 -28 -40 -39 -7
-26 23 -64 35 -45 6 9 10 8 14 -4 5 -14 10 -15 20 -5 8 7 9 16 4 23 -5 7 2 9
24 7 117 -12 173 -10 210 7 20 10 35 14 31 9 -9 -15 26 -10 42 5 11 11 11 16
1 19 -6 3 -2 4 10 4 18 -1 21 -6 17 -23 -5 -21 -3 -21 83 -20 48 1 96 -2 105
-6 10 -5 40 -9 67 -9 44 -1 48 -3 35 -16 -8 -8 -21 -12 -29 -9 -9 3 -12 0 -8
-10 3 -9 -1 -14 -11 -14 -14 0 -15 -2 -4 -14 11 -12 14 -11 20 5 9 25 18 25
11 0 -3 -10 1 -22 8 -26 7 -5 10 -4 5 3 -3 6 -1 14 5 17 5 4 8 13 5 21 -3 9 4
16 19 20 14 3 25 10 25 15 0 5 7 9 16 9 8 0 13 -3 11 -7 -3 -5 15 -8 39 -8 24
0 44 3 44 7 0 4 6 5 14 2 14 -5 28 17 31 49 2 12 -3 16 -12 13 -8 -3 -12 -2
-8 3 8 13 -23 41 -45 41 -10 0 -20 5 -22 11 -2 6 -17 11 -33 11 -17 0 -39 5
-50 11 -11 6 -30 13 -43 14 -21 4 -22 2 -11 -19 7 -13 14 -18 16 -12 2 7 12
10 23 7 10 -3 16 -11 14 -17 -3 -7 2 -19 11 -26 8 -7 15 -16 15 -20 0 -13
-102 -3 -110 10 -6 9 -9 9 -13 -1 -4 -10 -6 -10 -6 -1 -1 6 -8 12 -16 12 -8 0
-15 -6 -15 -12 -1 -8 -6 -6 -14 5 -7 9 -19 17 -27 17 -11 0 -11 -2 1 -10 12
-8 12 -10 1 -10 -8 0 -11 -3 -8 -6 3 -4 2 -15 -4 -25 -9 -19 -10 -18 -31 1
-26 24 -34 25 -42 5 -3 -8 -11 -15 -18 -15 -10 0 -10 2 1 9 11 7 9 10 -8 16
-11 3 -21 11 -21 16 0 5 -3 8 -7 8 -5 -1 -10 0 -13 1 -18 6 -49 11 -70 11 -14
-1 -35 -1 -47 -1 -13 0 -23 -5 -23 -11 0 -6 -9 -9 -20 -6 -11 3 -20 2 -20 -3
0 -14 -57 -17 -76 -3 -14 10 -14 13 -3 13 18 0 25 55 8 66 -8 4 -9 -1 -4 -17z
m610 -29 c3 -5 -1 -10 -10 -10 -9 0 -13 5 -10 10 3 6 8 10 10 10 2 0 7 -4 10
-10z m-410 -40 c3 -5 2 -10 -4 -10 -5 0 -13 5 -16 10 -3 6 -2 10 4 10 5 0 13
-4 16 -10z"/>
<path d="M5415 5660 c4 -6 11 -8 16 -5 14 9 11 15 -7 15 -8 0 -12 -5 -9 -10z"/>
<path d="M5053 5654 c4 -4 1 -14 -6 -22 -10 -13 -9 -14 11 -3 27 14 27 17 5
25 -10 4 -14 4 -10 0z"/>
<path d="M5321 5613 c-1 -6 -9 -9 -19 -6 -10 2 -23 -2 -29 -9 -9 -11 -3 -13
33 -13 37 0 44 3 44 20 0 15 -2 17 -9 6 -7 -11 -9 -11 -14 0 -3 8 -6 9 -6 2z"/>
<path d="M5495 5602 c-11 -11 -4 -21 15 -19 23 1 28 24 5 24 -8 0 -17 -3 -20
-5z"/>
<path d="M5780 5590 c0 -5 5 -10 11 -10 5 0 7 5 4 10 -3 6 -8 10 -11 10 -2 0
-4 -4 -4 -10z"/>
<path d="M5023 5488 c-2 -16 1 -18 10 -9 7 7 8 14 1 21 -6 6 -10 2 -11 -12z"/>
<path d="M4769 5443 c-13 -16 -12 -17 4 -4 9 7 17 15 17 17 0 8 -8 3 -21 -13z"/>
<path d="M4880 5450 c-9 -6 -10 -10 -3 -10 6 0 15 5 18 10 8 12 4 12 -15 0z"/>
<path d="M5530 5420 c-12 -8 -11 -10 5 -10 11 0 16 -4 10 -8 -10 -7 -18 -32
-10 -32 2 0 9 8 14 18 13 24 0 44 -19 32z"/>
<path d="M4886 5355 c-6 -16 19 -33 31 -21 4 3 -1 6 -10 6 -10 0 -14 5 -11 15
4 8 4 15 1 15 -3 0 -8 -7 -11 -15z"/>
<path d="M4740 5327 c0 -7 9 -13 21 -14 17 -2 18 1 9 13 -15 17 -30 18 -30 1z"/>
<path d="M5485 5330 c-3 -5 -1 -10 4 -10 6 0 11 5 11 10 0 6 -2 10 -4 10 -3 0
-8 -4 -11 -10z"/>
<path d="M4840 5280 c-6 -11 -7 -20 -2 -20 6 0 12 9 15 20 3 11 3 20 1 20 -2
0 -8 -9 -14 -20z"/>
<path d="M5430 5279 c0 -5 5 -7 10 -4 6 3 10 8 10 11 0 2 -4 4 -10 4 -5 0 -10
-5 -10 -11z"/>
<path d="M5465 5259 c-4 -6 -5 -12 -2 -15 2 -3 7 2 10 11 7 17 1 20 -8 4z"/>
<path d="M4925 5209 c-4 -6 -5 -12 -2 -15 2 -3 7 2 10 11 7 17 1 20 -8 4z"/>
<path d="M4883 5173 c0 -7 4 -13 9 -13 5 0 7 -4 4 -8 -3 -5 1 -9 9 -9 11 0 12
4 4 13 -8 9 -4 13 13 16 20 3 19 4 -8 9 -21 3 -31 1 -31 -8z"/>
<path d="M5485 5140 c-3 -5 -1 -10 4 -10 6 0 11 5 11 10 0 6 -2 10 -4 10 -3 0
-8 -4 -11 -10z"/>
<path d="M5020 5111 c15 -30 30 -35 17 -6 -7 14 -16 25 -20 25 -4 0 -3 -9 3
-19z"/>
<path d="M5090 5095 c5 -6 6 -16 2 -21 -4 -4 2 -2 13 6 11 8 21 15 23 16 2 1
-9 4 -23 6 -19 4 -23 2 -15 -7z"/>
<path d="M4627 4929 c4 -13 8 -18 11 -10 2 7 -1 18 -6 23 -8 8 -9 4 -5 -13z"/>
<path d="M4657 4931 c-3 -11 1 -25 9 -32 12 -10 13 -9 8 5 -4 10 -1 16 9 16 9
0 19 5 23 12 5 8 2 9 -11 4 -10 -4 -21 -2 -25 5 -5 6 -9 3 -13 -10z"/>
<path d="M4624 4888 c3 -15 26 -23 26 -8 0 6 -4 9 -9 6 -5 -4 -12 -1 -14 4 -3
6 -4 5 -3 -2z"/>
<path d="M4643 4838 c-2 -16 1 -18 10 -9 7 7 8 14 1 21 -6 6 -10 2 -11 -12z"/>
<path d="M5682 4810 c0 -14 2 -19 5 -12 2 6 2 18 0 25 -3 6 -5 1 -5 -13z"/>
<path d="M5704 4811 c0 -11 4 -17 8 -15 4 3 8 12 8 20 0 8 -4 14 -8 14 -4 0
-8 -9 -8 -19z"/>
<path d="M4634 4779 c-3 -6 -1 -16 6 -22 10 -9 12 -8 7 5 -3 9 -1 19 6 22 9 3
9 5 0 5 -6 1 -15 -4 -19 -10z"/>
<path d="M5285 4730 c3 -5 8 -10 11 -10 2 0 4 5 4 10 0 6 -5 10 -11 10 -5 0
-7 -4 -4 -10z"/>
<path d="M5720 4721 c0 -7 -5 -9 -12 -5 -7 5 -8 3 -3 -5 5 -9 10 -10 18 -2 6
6 8 14 4 18 -4 3 -7 1 -7 -6z"/>
<path d="M5270 4700 c0 -5 5 -10 11 -10 5 0 7 5 4 10 -3 6 -8 10 -11 10 -2 0
-4 -4 -4 -10z"/>
<path d="M4655 4680 c-3 -5 -1 -10 4 -10 6 0 11 5 11 10 0 6 -2 10 -4 10 -3 0
-8 -4 -11 -10z"/>
<path d="M4865 4680 c-3 -6 1 -18 10 -27 13 -12 19 -13 24 -4 6 9 11 8 21 -4
10 -12 10 -18 0 -30 -15 -18 -13 -20 19 -30 15 -4 21 -3 17 3 -8 14 20 35 35
26 8 -4 9 -3 5 4 -4 7 -16 12 -27 12 -11 0 -19 7 -19 17 0 9 -3 13 -7 10 -3
-4 -17 3 -30 15 -13 12 -23 16 -23 10 0 -7 -5 -12 -11 -12 -5 0 -7 5 -4 10 3
6 4 10 1 10 -3 0 -8 -5 -11 -10z"/>
<path d="M4895 4630 c-3 -5 1 -10 10 -10 9 0 13 5 10 10 -3 6 -8 10 -10 10 -2
0 -7 -4 -10 -10z"/>
<path d="M5320 4620 c0 -5 5 -10 11 -10 5 0 7 5 4 10 -3 6 -8 10 -11 10 -2 0
-4 -4 -4 -10z"/>
<path d="M5020 4594 c0 -8 5 -12 10 -9 6 4 8 11 5 16 -9 14 -15 11 -15 -7z"/>
<path d="M5390 4582 c0 -18 5 -32 10 -32 6 0 10 -5 10 -11 0 -5 -6 -7 -12 -3
-8 4 -10 3 -5 -2 9 -9 14 -11 47 -13 11 0 20 -6 20 -12 0 -6 -9 -8 -20 -4 -14
5 -20 2 -20 -9 0 -9 -6 -16 -14 -16 -8 0 -17 -4 -20 -9 -4 -5 3 -7 14 -4 23 6
26 -6 8 -27 -7 -7 -1 -5 14 6 22 16 23 20 10 25 -14 6 -12 9 10 17 21 9 26 17
24 39 -3 24 -8 28 -32 28 -23 0 -29 4 -29 22 0 12 -4 25 -8 29 -4 4 -7 -7 -7
-24z m55 -42 c3 -5 -1 -10 -10 -10 -9 0 -13 5 -10 10 3 6 8 10 10 10 2 0 7 -4
10 -10z"/>
<path d="M4970 4595 c0 -10 29 -24 34 -17 3 6 -3 12 -14 15 -11 3 -20 4 -20 2z"/>
<path d="M5111 4584 c0 -11 3 -14 6 -6 3 7 2 16 -1 19 -3 4 -6 -2 -5 -13z"/>
<path d="M5232 4593 c-6 -3 -10 -9 -6 -14 3 -5 0 -9 -7 -9 -7 0 -9 -3 -6 -6 4
-4 13 -1 22 6 8 7 22 10 30 6 21 -8 19 1 -2 12 -10 5 -24 7 -31 5z"/>
<path d="M5365 4590 c3 -5 8 -10 11 -10 2 0 4 5 4 10 0 6 -5 10 -11 10 -5 0
-7 -4 -4 -10z"/>
<path d="M5480 4575 c0 -8 2 -15 4 -15 2 0 6 7 10 15 3 8 1 15 -4 15 -6 0 -10
-7 -10 -15z"/>
<path d="M4920 4570 c0 -5 7 -10 16 -10 11 0 14 -5 10 -16 -4 -11 -2 -15 7
-11 7 3 19 -4 25 -14 7 -10 18 -19 25 -18 9 0 9 2 0 6 -7 2 -13 11 -13 18 0 8
-13 23 -29 34 -32 23 -41 26 -41 11z"/>
<path d="M5606 4567 c3 -10 9 -15 12 -12 3 3 0 11 -7 18 -10 9 -11 8 -5 -6z"/>
<path d="M4710 4566 c0 -2 8 -10 18 -17 15 -13 16 -12 3 4 -13 16 -21 21 -21
13z"/>
<path d="M5630 4560 c0 -5 5 -10 11 -10 5 0 7 5 4 10 -3 6 -8 10 -11 10 -2 0
-4 -4 -4 -10z"/>
<path d="M5344 4545 c-17 -13 -17 -14 -2 -15 9 0 20 5 23 11 11 17 0 20 -21 4z"/>
<path d="M5360 4450 c0 -6 7 -10 15 -10 8 0 15 2 15 4 0 2 -7 6 -15 10 -8 3
-15 1 -15 -4z"/>
<path d="M4750 4401 c11 -8 12 -11 2 -11 -10 0 -9 -4 2 -16 9 -8 14 -19 11
-24 -3 -4 5 -5 17 -2 19 5 20 7 5 10 -9 2 -15 8 -12 13 4 5 1 9 -4 9 -6 0 -10
5 -8 11 1 6 -5 14 -13 16 -13 4 -13 3 0 -6z"/>
<path d="M5350 4395 c-11 -13 -10 -14 5 -9 14 6 16 4 10 -6 -5 -8 -4 -11 3 -6
6 4 9 13 5 21 -7 19 -8 19 -23 0z"/>
<path d="M5390 4379 c0 -5 5 -7 10 -4 6 3 10 8 10 11 0 2 -4 4 -10 4 -5 0 -10
-5 -10 -11z"/>
<path d="M5287 4351 c-4 -17 -2 -18 14 -8 22 14 25 27 5 27 -7 0 -16 -9 -19
-19z"/>
<path d="M5077 4343 c-3 -5 0 -17 4 -28 9 -19 9 -19 5 2 -2 12 1 24 8 27 8 3
8 5 -1 5 -6 1 -14 -2 -16 -6z"/>
<path d="M5033 4325 c0 -8 4 -12 9 -9 5 3 6 10 3 15 -9 13 -12 11 -12 -6z"/>
<path d="M5226 4325 c-3 -9 0 -15 9 -15 8 0 15 -4 15 -8 0 -5 7 -9 15 -9 21 0
18 9 -9 29 -21 15 -25 15 -30 3z"/>
<path d="M5115 4320 c3 -4 -2 -13 -10 -20 -8 -7 -15 -17 -15 -23 0 -6 6 -2 14
8 13 18 13 18 24 -1 9 -16 14 -17 31 -7 17 11 20 10 18 -8 -1 -11 -6 -18 -12
-15 -7 2 -12 -2 -12 -10 0 -8 9 -13 23 -12 12 1 20 6 18 10 -3 4 -2 8 3 8 4 0
17 12 27 27 11 14 15 23 9 20 -6 -4 -13 -1 -15 5 -5 15 -40 17 -50 3 -5 -6 -8
-3 -8 6 0 11 -9 17 -25 17 -13 0 -23 -4 -20 -8z m39 -27 c3 -7 2 -13 -3 -13
-5 0 -14 6 -20 13 -8 10 -7 14 4 14 8 0 16 -6 19 -14z m49 -18 c-3 -9 -8 -14
-10 -11 -3 3 -2 9 2 15 9 16 15 13 8 -4z"/>
<path d="M5310 4319 c0 -5 -4 -8 -9 -4 -6 3 -9 -4 -8 -15 1 -19 3 -20 14 -5 6
10 16 14 22 11 5 -4 12 -2 15 3 3 5 -1 12 -10 15 -21 8 -24 8 -24 -5z"/>
<path d="M5060 4301 c0 -6 4 -13 10 -16 6 -3 7 1 4 9 -7 18 -14 21 -14 7z"/>
<path d="M4795 4279 c-4 -6 -5 -12 -2 -15 2 -3 7 2 10 11 7 17 1 20 -8 4z"/>
<path d="M4815 4270 c-3 -5 1 -10 10 -10 9 0 13 5 10 10 -3 6 -8 10 -10 10 -2
0 -7 -4 -10 -10z"/>
<path d="M5106 4265 c-9 -26 -7 -32 5 -12 6 10 9 21 6 23 -2 3 -7 -2 -11 -11z"/>
<path d="M5222 4259 c-7 -11 -11 -23 -9 -26 9 -8 48 18 44 30 -6 19 -22 18
-35 -4z"/>
<path d="M5137 4199 c7 -7 15 -10 18 -7 3 3 -2 9 -12 12 -14 6 -15 5 -6 -5z"/>
<path d="M4813 4183 c9 -2 14 -9 11 -15 -4 -7 -2 -8 5 -4 15 10 4 26 -17 25
-15 -1 -15 -2 1 -6z"/>
<path d="M4846 4141 c3 -9 7 -21 7 -28 0 -6 7 -9 15 -6 10 4 11 8 1 13 -6 5
-9 14 -6 22 3 9 -1 15 -9 15 -10 0 -13 -6 -8 -16z"/>
<path d="M4273 5925 c0 -8 4 -15 9 -15 4 0 8 4 8 9 0 6 -4 12 -8 15 -5 3 -9
-1 -9 -9z"/>
<path d="M4305 5910 c-3 -5 -1 -10 4 -10 6 0 11 5 11 10 0 6 -2 10 -4 10 -3 0
-8 -4 -11 -10z"/>
<path d="M6160 5750 c-12 -7 -12 -12 -2 -22 6 -6 12 -10 13 -7 0 2 2 12 4 22
4 20 4 19 -15 7z"/>
<path d="M6095 5600 c3 -5 11 -10 16 -10 6 0 7 5 4 10 -3 6 -11 10 -16 10 -6
0 -7 -4 -4 -10z"/>
</g>
</svg>
